<svg width="870" height="821" viewBox="0 0 870 821" fill="none" xmlns="http://www.w3.org/2000/svg">
<path d="M-96.666 45.462C-82.1348 -46.3739 -2.9669 -114 90.0115 -114H657.015C770.307 -114 858.146 -15.0143 844.674 97.4737L820.846 296.442C818.612 315.1 813.607 333.319 805.998 350.501L708.623 570.377C682.073 630.328 626.349 672.235 561.385 681.107L38.0012 752.585C-87.5323 769.729 -194.051 660.927 -174.25 535.785L-96.666 45.462Z" fill="url(#paint0_linear_158_30)"/>
<path d="M192 251C192 317.274 138.274 371 72 371C5.72583 371 -48 317.274 -48 251C-48 184.726 5.72583 131 72 131C138.274 131 192 184.726 192 251ZM-23.1132 251C-23.1132 303.53 19.4704 346.113 72 346.113C124.53 346.113 167.113 303.53 167.113 251C167.113 198.47 124.53 155.887 72 155.887C19.4704 155.887 -23.1132 198.47 -23.1132 251Z" fill="white" fill-opacity="0.14"/>
<path d="M100 581L121.866 670.905L214.127 663.918L135.379 712.495L170.534 798.082L100 738.2L29.4658 798.082L64.6207 712.495L-14.1268 663.918L78.1344 670.905L100 581Z" fill="white" fill-opacity="0.14"/>
<defs>
<linearGradient id="paint0_linear_158_30" x1="328" y1="-114" x2="328" y2="787" gradientUnits="userSpaceOnUse">
<stop offset="0.495" stop-color="#289BE9"/>
<stop offset="0.8775" stop-color="#22C98D"/>
<stop offset="1" stop-color="#1BF631"/>
</linearGradient>
</defs>
</svg>
